<svg xmlns="http://www.w3.org/2000/svg" viewBox="0 0 602 602"><defs><style>.cls-1{fill:#fefefe;}.cls-2{fill:#f95d3f;}.cls-3{fill:#f9c750;}.cls-4{fill:#f9c851;}.cls-5{fill:#79d7ea;}.cls-6{fill:#f9c852;}.cls-7{fill:#fef8f7;}.cls-8{fill:#fefcf9;}</style></defs><g id="Layer_2" data-name="Layer 2"><g id="Layer_1-2" data-name="Layer 1"><path class="cls-1" d="M0,602V0H602V602Zm460-65.69c.06-1,.17-1.94.17-2.92q0-113.7,0-227.4c0-1.31-.19-2.62-.34-4.53h-84V245.17H338.14V217.39H262.83v27.78H225.21v56.29H140.84v8.05q0,96.4,0,192.82c0,11.33.11,22.66.18,34q-.19,9.88-.38,19.77c-3-11.2-8.54-20.7-19.61-25.47-5.43-2.34-11.45-3.3-17.78-5,0-8.9.14-18.26,0-27.61-.25-14.74-12.71-27.12-27.45-27.39-6.84-.12-13.69-.15-20.53,0-13.87.33-26.75,12.3-27,26-.38,25-.09,50.07-.05,75.11a7.49,7.49,0,0,0,.7,1.94H572.77c0-26.42.53-52-.25-77.61-.34-11.34-7.12-20.38-18.29-23.39-8.1-2.18-17-1.92-25.49-2-19.38-.25-31,11.53-31,30.83,0,8.34,0,16.68,0,25.12-20.19.9-32.38,10.76-37.37,29.49Q460.14,546.18,460,536.31ZM218.75,90.62c11.19,12.15,22.68,25,34.6,37.35,3.22,3.34,4.45,6.45,3.61,10.86-1.91,10-3.67,20-5.37,30-1.17,6.91-2.13,13.86-3.36,21.94,3.43-1.64,5.37-2.49,7.24-3.47,13.5-7.09,27-14.11,40.43-21.38a8.6,8.6,0,0,1,9.24,0c11.14,6.11,22.41,12,33.66,17.86,4.23,2.22,8.53,4.3,13.76,6.93-.42-3.68-.59-6.18-1-8.63-2.49-14.62-5-29.24-7.61-43.84-.73-4,.28-6.94,3.38-9.8,8.76-8.09,17.15-16.59,25.79-24.81,4-3.82,8.29-7.37,12.44-11l-1.23-1.67c-17.52-2.53-35-5.21-52.57-7.5-3.61-.46-5.46-1.83-7-5-6.87-14.27-14-28.41-21-42.59-.9-1.8-1.91-3.55-3.28-6.09-1.52,2.92-2.54,4.78-3.48,6.67-7,14-14,28-20.77,42.05-1.54,3.2-3.36,4.93-7,4.94a58,58,0,0,0-8.11,1.1Zm176.77,84.71c7.24,7.52,13.44,15.16,20.86,21.33,6.54,5.44,7.59,11,5.7,18.78-2.23,9.17-3.19,18.64-4.93,29.37,11.36-6,21.42-11.1,31.29-16.56,3.43-1.9,6.19-2.12,9.75-.15,10,5.55,20.31,10.7,31.71,16.63-1.34-7.86-2.37-14.52-3.61-21.13-3.7-19.73-3.69-19.68,11.13-33.27,4.94-4.53,9.64-9.33,15.36-14.9-5.64-.78-9.65-1.31-13.64-1.91s-8.13-2-12.13-1.82c-12.16.63-18.62-5.28-22.42-16.39-2.58-7.55-7-14.46-11.13-22.66-5.71,11.55-10.87,21.81-15.85,32.16-1.56,3.25-3.42,5-7.36,5.5C418.85,171.62,407.52,173.55,395.52,175.33Zm-189.86-.09c-12.47-1.8-24.08-3.3-35.6-5.3a9.72,9.72,0,0,1-6-4.3c-4.43-8-8.31-16.37-12.4-24.58-1.23-2.47-2.51-4.92-4.31-8.43-5.78,11.83-10.72,22.43-16.19,32.77a10.18,10.18,0,0,1-6.38,4.55c-11.62,2.08-23.34,3.61-35.17,5.35,6.51,6.75,12.1,13.88,19,19.36,8.25,6.53,9.88,13.6,7.07,23.39-2.37,8.23-3,17-4.52,26.75,10.63-5.56,20.15-10.07,29.17-15.42,5.44-3.23,9.68-2.95,15,.22,8.82,5.26,18.14,9.68,28.47,15.09-1.68-10.53-2.38-19.93-4.85-28.85-2.35-8.49-.42-14.08,6.23-19.69C192.38,190.07,198.48,182.68,205.66,175.24Zm-137,79.41c-3.9,7.83-7.39,14.53-10.56,21.38-1.39,3-3.18,4.27-6.58,4.62-7.38.76-14.7,2.17-22.13,3.33,5.66,5.94,11,11.09,15.72,16.73a11.15,11.15,0,0,1,2.35,7.59c-.8,7.43-2.36,14.77-3.83,23.33,7-3.65,13-6.43,18.6-9.84,4.52-2.74,8.34-2.79,12.88,0,5.66,3.45,11.73,6.22,18.63,9.8-1.53-8.74-3.11-16-3.91-23.29a11.18,11.18,0,0,1,2.38-7.58c4.83-5.81,10.23-11.15,15.55-16.84-7-1.07-14.38-2.54-21.85-3.21-3.72-.33-5.47-1.9-6.91-5C75.91,268.93,72.5,262.37,68.67,254.65ZM572,283.91c-8-1.22-15.3-2.62-22.64-3.3-3.48-.32-5.15-1.74-6.52-4.67-3.18-6.81-6.63-13.49-10.5-21.28-4,8-7.12,14.87-10.86,21.44a10,10,0,0,1-5.94,4.25c-7.36,1.53-14.86,2.41-22.51,3.57,5.63,5.9,11,11.19,15.9,16.91a10.28,10.28,0,0,1,2.19,7.05c-.84,7.57-2.33,15.07-3.76,23.73,6.37-3.33,11.8-5.59,16.59-8.82,6-4,11.17-3.69,17,.12,4.84,3.13,10.21,5.43,16.29,8.59-1.34-8.12-2.11-15.26-3.81-22.18-1.06-4.31.21-6.9,3.18-9.7C561.7,294.83,566.4,289.67,572,283.91Z"/><path class="cls-2" d="M460.12,573.66H328.7v-74.4H272.27v74.4H140.86l-.21-17.57q.18-9.89.38-19.77h84.33v-8.15q0-56.25,0-112.48,0-57.12-.14-114.23V245.17h37.62V273h75.31V245.17h37.62v56.29c-.05.78-.13,1.56-.13,2.34q0,113.94,0,227.88c0,1.31.22,2.63.4,4.63H460q.18,9.88.38,19.76ZM254,301.79v18H272v-18Zm37.63-.13v18.26h17.85V301.66Zm37.41.15v18.13h18V301.81ZM271.92,357.6V339.54h-18.1V357.6Zm-18.13,37.52H272V377.07H253.79Zm56-18H291.49V395h18.26Zm37.57,0H329.05V395h18.27ZM253.66,432.5h18.26V414.66H253.66Zm56-17.83H291.4v18h18.27Zm19.4-.19v18h18.07v-18ZM253.84,452v18.16H271.9V452Zm55.76.07H291.48v18H309.6Zm19.45-.05V470.1h18.1V452.05Zm0-112.72v18.26h18V339.33Zm-37.72,18.15h18.06V339.39H291.37Z"/><path class="cls-3" d="M460,536.31H376c-.18-2-.4-3.32-.4-4.63q0-113.94,0-227.88c0-.78.08-1.56.13-2.34h84c.15,1.91.34,3.22.34,4.53q0,113.7,0,227.4C460.12,534.37,460,535.34,460,536.31ZM431.8,386.51H404.15v17.84H431.8Zm-.23,65v-18H404.18v18Zm-27.48,46.83h27.35v-18H404.09Zm.15-159v18.25h27.27V339.28Z"/><path class="cls-3" d="M225.21,301.46q.07,57.12.14,114.23,0,56.24,0,112.48v8.15H141c-.07-11.33-.18-22.66-.18-34q0-96.4,0-192.82v-8.05ZM197,339.61H169.34v17.84H197Zm-.23,65V386.37H169.44v18.25Zm.23,28.89H169.34v17.83H197Zm-.06,46.8H169.49v18h27.43Z"/><path class="cls-4" d="M218.75,90.62l42.31-6.19a58,58,0,0,1,8.11-1.1c3.68,0,5.5-1.74,7-4.94,6.78-14.08,13.81-28,20.77-42,.94-1.89,2-3.75,3.48-6.67,1.37,2.54,2.38,4.29,3.28,6.09,7,14.18,14.15,28.32,21,42.59,1.53,3.17,3.38,4.54,7,5,17.55,2.29,35.05,5,52.57,7.5l1.23,1.67c-4.15,3.68-8.42,7.23-12.44,11-8.64,8.22-17,16.72-25.79,24.81-3.1,2.86-4.11,5.78-3.38,9.8,2.63,14.6,5.12,29.22,7.61,43.84.42,2.45.59,4.95,1,8.63-5.23-2.63-9.53-4.71-13.76-6.93-11.25-5.9-22.52-11.75-33.66-17.86a8.6,8.6,0,0,0-9.24,0c-13.4,7.27-26.93,14.29-40.43,21.38-1.87,1-3.81,1.83-7.24,3.47,1.23-8.08,2.19-15,3.36-21.94,1.7-10,3.46-20,5.37-30,.84-4.41-.39-7.52-3.61-10.86C241.43,115.58,229.94,102.77,218.75,90.62Z"/><path class="cls-5" d="M460.12,573.66l.21-17.59c5-18.73,17.18-28.59,37.37-29.49,0-8.44,0-16.78,0-25.12,0-19.3,11.66-31.08,31-30.83,8.53.11,17.39-.15,25.49,2,11.17,3,17.95,12,18.29,23.39.78,25.57.25,51.19.25,77.61Z"/><path class="cls-5" d="M140.65,556.09l.21,17.57H28.94a7.49,7.49,0,0,1-.7-1.94c0-25-.33-50.08.05-75.11.21-13.73,13.09-25.7,27-26,6.84-.16,13.69-.13,20.53,0,14.74.27,27.2,12.65,27.45,27.39.17,9.35,0,18.71,0,27.61,6.33,1.75,12.35,2.71,17.78,5C132.11,535.39,137.63,544.89,140.65,556.09Z"/><path class="cls-4" d="M395.52,175.33c12-1.78,23.33-3.71,34.73-5,3.94-.46,5.8-2.25,7.36-5.5,5-10.35,10.14-20.61,15.85-32.16,4.12,8.2,8.55,15.11,11.13,22.66,3.8,11.11,10.26,17,22.42,16.39,4-.2,8.07,1.21,12.13,1.82s8,1.13,13.64,1.91c-5.72,5.57-10.42,10.37-15.36,14.9-14.82,13.59-14.83,13.54-11.13,33.27,1.24,6.61,2.27,13.27,3.61,21.13-11.4-5.93-21.67-11.08-31.71-16.63-3.56-2-6.32-1.75-9.75.15-9.87,5.46-19.93,10.58-31.29,16.56,1.74-10.73,2.7-20.2,4.93-29.37,1.89-7.79.84-13.34-5.7-18.78C409,190.49,402.76,182.85,395.52,175.33Z"/><path class="cls-4" d="M205.66,175.24c-7.18,7.44-13.28,14.83-20.49,20.91-6.65,5.61-8.58,11.2-6.23,19.69,2.47,8.92,3.17,18.32,4.85,28.85-10.33-5.41-19.65-9.83-28.47-15.09-5.32-3.17-9.56-3.45-15-.22-9,5.35-18.54,9.86-29.17,15.42,1.57-9.78,2.15-18.52,4.52-26.75,2.81-9.79,1.18-16.86-7.07-23.39-6.91-5.48-12.5-12.61-19-19.36,11.83-1.74,23.55-3.27,35.17-5.35a10.18,10.18,0,0,0,6.38-4.55c5.47-10.34,10.41-20.94,16.19-32.77,1.8,3.51,3.08,6,4.31,8.43,4.09,8.21,8,16.54,12.4,24.58a9.72,9.72,0,0,0,6,4.3C181.58,171.94,193.19,173.44,205.66,175.24Z"/><path class="cls-3" d="M338.14,245.17V273H262.83V217.39h75.31Z"/><path class="cls-3" d="M272.27,573.65v-74.4H328.7v74.4Z"/><path class="cls-6" d="M68.67,254.65c3.83,7.72,7.24,14.28,10.34,21,1.44,3.12,3.19,4.69,6.91,5,7.47.67,14.87,2.14,21.85,3.21-5.32,5.69-10.72,11-15.55,16.84a11.18,11.18,0,0,0-2.38,7.58c.8,7.32,2.38,14.55,3.91,23.29-6.9-3.58-13-6.35-18.63-9.8-4.54-2.76-8.36-2.71-12.88,0-5.61,3.41-11.61,6.19-18.6,9.84,1.47-8.56,3-15.9,3.83-23.33a11.15,11.15,0,0,0-2.35-7.59C40.38,295.07,35.06,289.92,29.4,284c7.43-1.16,14.75-2.57,22.13-3.33,3.4-.35,5.19-1.64,6.58-4.62C61.28,269.18,64.77,262.48,68.67,254.65Z"/><path class="cls-6" d="M572,283.91c-5.59,5.76-10.29,10.92-15.35,15.71-3,2.8-4.24,5.39-3.18,9.7,1.7,6.92,2.47,14.06,3.81,22.18-6.08-3.16-11.45-5.46-16.29-8.59-5.87-3.81-11.07-4.14-17-.12-4.79,3.23-10.22,5.49-16.59,8.82,1.43-8.66,2.92-16.16,3.76-23.73a10.28,10.28,0,0,0-2.19-7.05c-4.88-5.72-10.27-11-15.9-16.91,7.65-1.16,15.15-2,22.51-3.57a10,10,0,0,0,5.94-4.25c3.74-6.57,6.9-13.48,10.86-21.44,3.87,7.79,7.32,14.47,10.5,21.28,1.37,2.93,3,4.35,6.52,4.67C556.69,281.29,564,282.69,572,283.91Z"/><path class="cls-7" d="M254,301.79H272v18H254Z"/><path class="cls-7" d="M291.58,301.66h17.85v18.26H291.58Z"/><path class="cls-7" d="M329,301.81h18v18.13H329Z"/><path class="cls-7" d="M271.92,357.6h-18.1V339.54h18.1Z"/><path class="cls-7" d="M253.79,395.12V377.07H272v18.05Z"/><path class="cls-7" d="M309.75,377.14V395H291.49V377.14Z"/><path class="cls-7" d="M347.32,377.14V395H329.05V377.14Z"/><path class="cls-7" d="M253.66,432.5V414.66h18.26V432.5Z"/><path class="cls-7" d="M309.67,414.67v18H291.4v-18Z"/><path class="cls-7" d="M329.07,414.48h18.07v18H329.07Z"/><path class="cls-7" d="M253.84,452H271.9v18.16H253.84Z"/><path class="cls-7" d="M309.6,452.1v18H291.48v-18Z"/><path class="cls-7" d="M329.05,452.05h18.1V470.1h-18.1Z"/><path class="cls-7" d="M329.09,339.33h18v18.26h-18Z"/><path class="cls-7" d="M291.37,357.48V339.39h18.06v18.09Z"/><path class="cls-8" d="M431.8,386.51v17.84H404.15V386.51Z"/><path class="cls-8" d="M431.57,451.48H404.18v-18h27.39Z"/><path class="cls-8" d="M404.09,498.31v-18h27.35v18Z"/><path class="cls-8" d="M404.24,339.28h27.27v18.25H404.24Z"/><path class="cls-8" d="M197,339.61v17.84H169.34V339.61Z"/><path class="cls-8" d="M196.75,404.62H169.44V386.37h27.31Z"/><path class="cls-8" d="M197,433.51v17.83H169.34V433.51Z"/><path class="cls-8" d="M196.92,480.31v18H169.49v-18Z"/></g></g></svg>