<svg xmlns="http://www.w3.org/2000/svg" viewBox="0 0 640 640"><defs><style>.cls-1{fill:#fefefe;}.cls-2{fill:#da8638;}.cls-3{fill:#718799;}.cls-4{fill:#fea102;}.cls-5{fill:#fea101;}.cls-6{fill:#637a8c;}.cls-7{fill:#fecdb5;}.cls-8{fill:#dfecfe;}.cls-9{fill:#c47323;}.cls-10{fill:#c47322;}.cls-11{fill:#fecdb4;}.cls-12{fill:#febfa1;}.cls-13{fill:#febf9f;}</style></defs><g id="Layer_2" data-name="Layer 2"><g id="Layer_1-2" data-name="Layer 1"><path class="cls-1" d="M640,640H0V0H640ZM49.87,238.13c-.81,11-.37,21.59,9.24,29.29-3.35,1.59-6.89,2.89-10,4.84-11.47,7.13-18.68,17.53-19,31-.6,25.26-.09,50.55,0,75.83.12,5.18-.36,10.45.46,15.5C33.25,411.39,44.2,421.42,59.07,428l50.46,41.28L66.24,538.61c-6.45,9.6-6.32,10.84,0,15.95,12,9.75,23.8,19.73,35.7,29.58,6,4.93,12,9.81,17.46,14.29,10.49-6.31,10.43-14.16,4.91-23.08a30.41,30.41,0,0,1-2.3-5.75q-5.7-15.66-11.37-31.34c13-15.68,26-31.33,38.88-47.06,14.4-17.54,13.63-38.14-2.15-54.47-8.23-8.51-16.76-16.73-25.15-25.08,7.49-3.42,15.1-6.63,22.44-10.34,3.68-1.87,6-1.5,9.26,1.23,18.37,15.54,37,30.78,55.54,46.12,2.75,5.58,5.27,11.29,8.42,16.63.86,1.45,4,2.92,5.46,2.45,18.7-6,37.29-12.35,55.9-18.61,1.63,18.31.39,36-10.62,51.76-2.82,4.05-4.21,9.07-6.84,13.28-2.28,3.66-1.52,6.11,1,9.31q12.1,15.46,23.51,31.46a16.94,16.94,0,0,1,3,9c.3,16.22.14,32.44.14,48.66v5.92h329V399H578.87q-.23-15.25-.44-30.52Q536,292.07,493.59,215.73c-4.6-8.27-9.61-16.31-14.44-24.46-2.68-13.22-10.2-23.33-20.38-31.72-14.56-14.73-29.42-29.18-43.6-44.26C399.94,99.1,382,89.5,359.45,89.39L348.21,72,336.84,54.74c-3.71-5.72-7.14-11.65-11.19-17.12a19,19,0,0,0-24.43-5.68,145.81,145.81,0,0,0-16.58,10.91,12.66,12.66,0,0,0-5,13.24,13.55,13.55,0,0,0,9.87,11A98.43,98.43,0,0,0,299.26,69c4.23,6.34,7.7,13.44,13,18.77,3.54,3.6,9.61,4.71,14.55,6.93l1.81,2.89c-14.72,10.42-29.46,20.79-44.11,31.3-1.5,1.07-2.44,2.94-3.63,4.44-1.85.74-3.71,1.44-5.54,2.23-3.35,1.43-6.55,3.68-10,4.23-9.79,1.56-19.68,2.38-29.53,3.59-9.58,1.16-19.15,2.44-28.72,3.67l-22.35,1.6c-12.12,0-20.09,6.47-27.23,15.75-11.85,15.42-24.76,30-37,45.15-7.52,9.28-14.66,18.88-22,28.34l-7.6,7.69-1.1-16.09c1.75-1.75,3.55-3.47,5.25-5.28,4.3-4.58,6.16-9.78,3.56-15.88-2.68-6.26-7.68-8.86-14.3-8.82-4.76,0-9.52-.09-14.27,0-11.58.27-19.89,8.49-20.15,20C49.7,225.72,49.85,231.93,49.87,238.13Z"/><path class="cls-2" d="M578.87,399h39.54V618.5h-329v-5.92c0-16.22.16-32.44-.14-48.66a16.94,16.94,0,0,0-3-9q-11.37-16-23.51-31.46c-2.5-3.2-3.26-5.65-1-9.31,2.63-4.21,4-9.23,6.84-13.28,11-15.79,12.25-33.45,10.62-51.76l.15-20c14.25-11.53,24.62-25.53,28.08-44a42.47,42.47,0,0,1,2-5.89l49.87-.25c7.66.23,15.47-.44,22.94.86,19.38,3.38,38.54,7.92,57.89,11.44s38.65,9.9,58.89,7.67Z"/><path class="cls-3" d="M458.77,159.55c10.18,8.39,17.7,18.5,20.38,31.72a32.94,32.94,0,0,0-.09,3.71c1.87,20.4-15.86,40.69-33.8,43.47-1.72.26-3.29,1.5-4.92,2.28a39.22,39.22,0,0,0-4.86.7c-19.56,5.28-39,10.92-58.71,15.75-6.16,1.52-8.08,4.49-8.68,10.34-2.79,27.17-5.95,54.3-9,81.44l-39.67-9.75c0-27.56,0-55.12-.15-82.69-.08-18.21,8-31.18,24.28-39.26,11.67-5.79,23.19-11.85,34.78-17.78Z"/><path class="cls-4" d="M458.77,159.55l-80.41,39.93c-10.18-6.25-21-11.64-30.38-18.94-12.36-9.63-24.36-12.08-37.86-3.32a10.44,10.44,0,0,1-1.71.72q-1.29-2.12-2.59-4.21l-25-40.42c1.19-1.5,2.13-3.37,3.63-4.44,14.65-10.51,29.39-20.88,44.11-31.3l30.87-8.18c22.54.11,40.49,9.71,55.72,25.9C429.35,130.37,444.21,144.82,458.77,159.55Z"/><path class="cls-3" d="M59.07,428c-14.87-6.55-25.82-16.58-28.56-33.37-.82-5.05-.34-10.32-.46-15.5l69.73-19.3c10.44-2.74,20.89-5.42,31.31-8.2,25.49-6.78,50.76,1.71,66.39,22.85,10.87,14.7,21.26,29.75,31.86,44.65q-10,14.79-19.93,29.56c-18.54-15.34-37.17-30.58-55.54-46.12-3.22-2.73-5.58-3.1-9.26-1.23-7.34,3.71-15,6.92-22.44,10.34-2.13.65-4.3,1.2-6.39,2C97.38,420.42,80.48,433.11,59.07,428Z"/><path class="cls-5" d="M99.78,359.8,30.05,379.1c-.05-25.28-.56-50.57,0-75.83.31-13.48,7.52-23.88,19-31,3.14-1.95,6.68-3.25,10-4.84,13-3.76,24.85-9.21,31.74-21.86l7.6-7.69L139,268.12a48.89,48.89,0,0,1-2.9,6.56c-5.59,9-12.88,17.21-16.7,26.85C111.88,320.56,106.22,340.33,99.78,359.8Z"/><path class="cls-6" d="M440.34,240.73c1.63-.78,3.2-2,4.92-2.28,17.94-2.78,35.67-23.07,33.8-43.47a32.94,32.94,0,0,1,.09-3.71c4.83,8.15,9.84,16.19,14.44,24.46q42.49,76.32,84.84,152.71c-2.44-.39-4.89-.7-7.3-1.16q-21.12-4-42.22-8Z"/><path class="cls-6" d="M59.07,428c21.41,5.14,38.31-7.55,56.71-14.35,2.09-.77,4.26-1.32,6.39-2,8.39,8.35,16.92,16.57,25.15,25.08,15.78,16.33,16.55,36.93,2.15,54.47-12.91,15.73-25.92,31.38-38.88,47.06l-44.35.35,43.29-69.36Z"/><path class="cls-7" d="M139,268.12,98.45,237.87c7.31-9.46,14.45-19.06,22-28.34,12.26-15.12,25.17-29.73,37-45.15,7.14-9.28,15.11-15.74,27.23-15.75,1.1,1.09,2,2.5,3.32,3.23,9.74,5.52,13.57,13.71,10.63,24.4-1.25,4.53-3.5,8.78-5.29,13.16q-24.53,36.54-49.08,73C142.83,264.57,140.78,266.25,139,268.12Z"/><path class="cls-7" d="M280.84,133.31l25,40.42q1.31,2.1,2.59,4.21c-12.5,4.91-24.7,11.21-38.47,11.44-19.73.34-39.47,0-59.21,0,1.26-5.8,2.84-11.55,3.71-17.41,1.4-9.36-3.61-17-7.42-24.93,9.57-1.23,19.14-2.51,28.72-3.67,9.85-1.21,19.74-2,29.53-3.59,3.48-.55,6.68-2.8,10-4.23C277.13,134.75,279,134.05,280.84,133.31Z"/><path class="cls-8" d="M528.91,359.25q21.11,4,42.22,8c2.41.46,4.86.77,7.3,1.16q.23,15.26.44,30.52H499c-1.07-6.55,1.52-11.26,6.36-15.75C513.56,375.6,521.09,367.27,528.91,359.25Z"/><path class="cls-8" d="M209.41,448.66q10-14.78,19.93-29.56l50,10-.15,20c-18.61,6.26-37.2,12.61-55.9,18.61-1.47.47-4.6-1-5.46-2.45C214.68,460,212.16,454.24,209.41,448.66Z"/><path class="cls-8" d="M66.24,538.61l44.35-.35q5.68,15.68,11.37,31.34a30.41,30.41,0,0,0,2.3,5.75c5.52,8.92,5.58,16.77-4.91,23.08-5.48-4.48-11.5-9.36-17.46-14.29-11.9-9.85-23.71-19.83-35.7-29.58C59.92,549.45,59.79,548.21,66.24,538.61Z"/><path class="cls-7" d="M336.84,54.74,348.21,72c-.88,2.44-2,4.82-2.6,7.32C343.15,88.87,337,94,326.77,94.68c-4.94-2.22-11-3.33-14.55-6.93-5.26-5.33-8.73-12.43-13-18.77,3.41-2.33,7-4.46,10.19-7C317.56,55.49,326,50.55,336.84,54.74Z"/><path class="cls-9" d="M336.84,54.74c-10.87-4.19-19.28.75-27.39,7.21-3.22,2.57-6.78,4.7-10.19,7a98.43,98.43,0,0,1-9.73-1.92,13.55,13.55,0,0,1-9.87-11,12.66,12.66,0,0,1,5-13.24,145.81,145.81,0,0,1,16.58-10.91,19,19,0,0,1,24.43,5.68C329.7,43.09,333.13,49,336.84,54.74Z"/><path class="cls-10" d="M49.87,238.13c0-6.2-.17-12.41,0-18.61.26-11.52,8.57-19.74,20.15-20,4.75-.11,9.51,0,14.27,0,6.62,0,11.62,2.56,14.3,8.82,2.6,6.1.74,11.3-3.56,15.88-1.7,1.81-3.5,3.53-5.25,5.28-3.5,0-7,0-10.49,0C68.56,229.3,57.41,227.61,49.87,238.13Z"/><path class="cls-11" d="M49.87,238.13c7.54-10.52,18.69-8.83,29.39-8.69,3.5.05,7,0,10.49,0q.56,8.06,1.1,16.09c-6.89,12.65-18.73,18.1-31.74,21.86C49.5,259.72,49.06,249.12,49.87,238.13Z"/><path class="cls-12" d="M207,147c3.81,7.92,8.82,15.57,7.42,24.93-.87,5.86-2.45,11.61-3.71,17.41l-17.4,0c1.79-4.38,4-8.63,5.29-13.16,2.94-10.69-.89-18.88-10.63-24.4-1.3-.73-2.22-2.14-3.32-3.23Z"/><path class="cls-13" d="M326.77,94.68C337,94,343.15,88.87,345.61,79.34c.64-2.5,1.72-4.88,2.6-7.32l11.24,17.37-30.87,8.18Z"/><path class="cls-1" d="M193.33,189.42l17.4,0c19.74,0,39.48.35,59.21,0,13.77-.23,26-6.53,38.47-11.44a10.44,10.44,0,0,0,1.71-.72c13.5-8.76,25.5-6.31,37.86,3.32,9.36,7.3,20.2,12.69,30.38,18.94-11.59,5.93-23.11,12-34.78,17.78-16.3,8.08-24.36,21.05-24.28,39.26.13,27.57.11,55.13.15,82.69-11.5,8.66-22.79,17.61-34.59,25.82-5.4,3.76-6.46,7.89-4.59,14.21h29.12a43.78,43.78,0,0,0-2,5.89c-3.46,18.45-13.83,32.45-28.08,44l-50-10c-10.6-14.9-21-30-31.86-44.65-15.63-21.14-40.9-29.63-66.39-22.85-10.42,2.78-20.87,5.46-31.31,8.2,6.44-19.47,12.1-39.24,19.64-58.27,3.82-9.64,11.11-17.89,16.7-26.85a48.89,48.89,0,0,0,2.9-6.56c1.76-1.87,3.81-3.55,5.23-5.66Q168.87,226,193.33,189.42Z"/><path class="cls-1" d="M528.91,359.25c-7.82,8-15.35,16.35-23.56,24-4.84,4.49-7.43,9.2-6.36,15.75-20.24,2.23-39.4-4.12-58.89-7.67s-38.51-8.06-57.89-11.44c-7.47-1.3-15.28-.63-22.94-.86l-.15-30c3-27.14,6.18-54.27,9-81.44.6-5.85,2.52-8.82,8.68-10.34,19.67-4.83,39.15-10.47,58.71-15.75a39.22,39.22,0,0,1,4.86-.7Z"/><path class="cls-8" d="M359.12,349l.15,30-49.87.25H280.27c-1.87-6.32-.81-10.45,4.59-14.21,11.8-8.21,23.09-17.16,34.59-25.82Z"/></g></g></svg>