<svg xmlns="http://www.w3.org/2000/svg" viewBox="0 0 868.09 868.09"><defs><style>.cls-1{fill:#fefefe;}.cls-2{fill:#fe4a4a;}.cls-3{fill:#fefdfd;}.cls-4{fill:#febb26;}.cls-5{fill:#e63540;}.cls-6{fill:#feda56;}.cls-7{fill:#26a7e9;}.cls-8{fill:#25a6e9;}.cls-9{fill:#24a6e9;}.cls-10{fill:#23a6e9;}.cls-11{fill:#23a5e9;}</style></defs><g id="Layer_2" data-name="Layer 2"><g id="Layer_1-2" data-name="Layer 1"><path class="cls-1" d="M0,455.16V0H868.08q0,434,0,868.09H240.34c10.38-1.72,20.81-3.13,31.11-5.21,24.82-5,49.18-11.41,70.11-26.67,19.12-13.93,25.58-31.68,18.67-50.9-6.16-7.46-11-17.24-18.79-21.88-15.25-9-32.21-15.16-48.47-22.5,2.2-2.53,4.35-5.11,6.59-7.59C345.15,683,385.18,629,408.76,564.46c15.82-43.3,22-87.9,12.31-133.3C398.86,326.8,303.71,254.22,196.37,262.74c-6.08.87-12.21,1.45-18.23,2.63C90.84,282.44,34.54,334,8.31,418.64,4.62,430.53,2.72,443,0,455.16Zm814.15-52.48c-7.37-7.06-14.06-15.09-22.31-20.91-7.17-5-16.1-7.6-24.25-11.25,16.9-21.42,34.94-42,50.42-64.45,25.34-36.66,43.35-76.65,47.38-121.86,4.82-54.26-12.45-100.61-52-137.59C776.2,11.84,731.74-3.62,680.47,3.48c-19.73,1.14-38.14,7.1-55.36,16.34C566,51.49,535.27,101.4,533.9,168.05c-.84,41.2,13.54,79,33.53,114.6,18,32.13,41.05,60.55,65.35,88-3.12,1.17-6.27,2.24-9.35,3.51-15,6.25-29.63,13.14-37.74,28.56-8.28,15.75-3.56,32.59,12.63,44.86,13.25,10.05,28.55,15.49,44.48,19.31a245.85,245.85,0,0,0,98.76,3.25c21.11-3.54,41.74-9.08,59.41-22.12C817.63,435.73,822.54,418.69,814.15,402.68ZM552.05,812l0-.58c3.08,0,6.2.33,9.23-.06,7.24-1,12.13-4.9,12.22-12.52s-4.66-12.11-11.93-12.69a96.16,96.16,0,0,0-20.06.65c-6.39.84-9.71,5.62-9.81,11.82s3.26,10.69,9.53,12.13C544.77,811.56,548.45,811.61,552.05,812ZM526.66,431v0c3.08-.18,6.17-.22,9.22-.55,7.3-.78,12-4.44,12.47-12.17.4-7.11-4.34-12.41-12.46-13.05-5.52-.44-11.17.25-16.73.82-7.84.81-12.91,6.18-12.69,13,.23,7.11,6.13,12.2,14.32,12.29C522.75,431.27,524.71,431.06,526.66,431Zm16.65,138.38c-3.72.23-6.82.33-9.9.63-7.35.69-11.39,5.22-11.69,12.15-.3,6.7,3.63,11.71,10.32,12.36a91.79,91.79,0,0,0,22.59-.46c6.33-1,10.17-6.6,8.5-12.49-1.23-4.33-5.66-8.39-9.67-11C550.79,568.69,546.35,569.59,543.31,569.33Zm66.35,0c-3.54.26-6.95.26-10.27.81-6.36,1.05-10,5-10.41,11.43-.4,6.85,2.95,11.93,9.7,12.71a95.28,95.28,0,0,0,22.58-.09c6.4-.79,9.62-6.12,9.39-12.26s-3.7-10.65-10.21-11.72C616.85,569.62,613.16,569.6,609.66,569.33Zm134.8,26.28,0-.34c2.54,0,5.1.2,7.61,0,7.81-.72,13.28-6.08,12.8-13-.53-7.55-5-11.88-12.53-12.24a136.68,136.68,0,0,0-18.55.2c-6.51.58-10.21,5-10.7,11.21-.53,6.69,3,11.42,9.64,13C736.56,595.23,740.56,595.22,744.46,595.61ZM866.21,712.19c-.3-8.07-3.57-12.71-10-14.3-6.2-1.52-11.49,1.05-13.83,6.81a95.24,95.24,0,0,0-5.71,20.14c-1.1,6.62,2.58,11.39,8.92,13.43,6.6,2.13,12-.44,14.57-6.53C863,725.09,864.49,717.91,866.21,712.19Zm-379.16-273c-.25-8.85-11.2-15.91-18.12-10.55a71.54,71.54,0,0,0-17.33,19.93c-4.06,6.9,3.5,16.5,11.48,16.26S487.27,447.13,487.05,439.21ZM677,595.73l.05-.49c2.53,0,5.09.21,7.59,0,8.16-.84,13-5.67,12.93-12.82,0-7.34-4.49-12-13-12.57a110.21,110.21,0,0,0-18.52.47c-6.09.66-9.43,4.94-10,10.84-.59,6.31,2.3,11.12,8.45,12.94C668.54,595.24,672.86,595.22,677,595.73ZM621.34,811.24c.94,0,4.32-.19,7.68-.47,7.44-.62,11.35-5.29,11.63-12.16.26-6.6-3.59-11.24-10.31-12.45a67.79,67.79,0,0,0-11.76-.64c-13.69,0-19.69,4.05-19.58,13.08S605.05,811.37,621.34,811.24ZM499.14,568.69c-.82-1.59-1.76-5.41-4.16-7.69a104.24,104.24,0,0,0-15.84-12.39c-5.76-3.67-11.51-2.22-15.72,3s-4.51,11.19.4,16a88.18,88.18,0,0,0,16.37,13C488.34,585.32,498,579.86,499.14,568.69ZM754.53,784.54v.62c-2.81,0-5.64-.2-8.43,0-7.92.68-13.19,5.92-13.09,12.79s5.52,12.35,13.39,12.46a104.56,104.56,0,0,0,17.66-1.33c7.05-1.12,10.92-5.73,10.89-12.9,0-6.7-5.35-11.53-12.85-12A64.15,64.15,0,0,0,754.53,784.54Zm52.13,6.86c8.91,0,27-14.35,27.26-20.83.13-4-1.54-9.39-4.39-11.74s-9.2-3.56-12.19-1.93a68.12,68.12,0,0,0-18.26,14.66c-2.29,2.61-2.67,9-1.11,12.32C799.7,787.57,804.63,789.76,806.66,791.4Zm58.79-129.64c-4-9.56-6.26-18-11-24.64-2.21-3.12-9.5-4.59-13.91-3.76-6,1.14-9.12,7.08-7.54,13.23,1.8,7,3.9,14.48,8,20.24,2.38,3.36,9.3,5.77,13.44,4.95S861.6,665.51,865.45,661.76ZM815.34,619.3c3.42-2.82,8.67-5.07,9.83-8.65,1.28-4,.39-10.62-2.32-13.53a49,49,0,0,0-18-12.12c-3.71-1.41-10.41.29-13.36,3.11-2.62,2.51-4,9.61-2.31,12.71C794.38,610.3,804.19,614.49,815.34,619.3ZM435.12,503.74c.07,1.35.09,3.61.36,5.84a75.07,75.07,0,0,0,1.34,8.32c1.69,7.17,7.35,11.36,14.19,10.25,7.16-1.16,10.77-5.85,10.81-12.9,0-4.75-.79-9.51-1.29-14.26-1-9.74-5.35-14.34-13.22-14.09S435,493,435.12,503.74Zm49.44,308.49c4.3-.33,7.73-.24,11-.92,7.65-1.57,11.51-6.62,10.6-13.76s-5.55-10.8-12.65-11c-5.91-.14-11.84-.18-17.73.24-7,.5-10.68,5.14-11.12,11.66-.42,6.23,2.84,10.91,9.14,12.46C477.56,811.86,481.56,811.9,484.56,812.23Zm201.6-1.53v-.05c2.81,0,5.63.12,8.44,0,7.42-.38,12.29-3.86,13-11.62.66-7.23-4.13-12.83-12-13.54a102.18,102.18,0,0,0-16.87,0c-7.77.61-13.07,6.29-12.88,13,.2,7,5.43,11.78,13.51,12.21C681.65,810.8,683.91,810.7,686.16,810.7ZM418.47,786.78v0c-2.53,0-5.07-.12-7.59,0-8,.44-13.16,5.29-13.3,12.32s4.76,12.44,12.72,12.93a96.86,96.86,0,0,0,17.7-.26c7-.86,11-5.59,11.35-12.6.34-6.64-5.05-11.75-12.44-12.35C424.12,786.59,421.29,786.78,418.47,786.78Z"/><path class="cls-2" d="M0,455.16C2.72,443,4.62,430.53,8.31,418.64,34.54,334,90.84,282.44,178.14,265.37c6-1.18,12.15-1.76,18.23-2.63,3.7,1.16,7.35,2.58,11.12,3.44,56.4,12.9,101.88,42.36,134.08,90.59,30,45,40.93,95,33.83,148.47-5.34,40.22-19.32,77.86-39.14,113.11-29.8,53-68.12,99.47-111.15,142.16-11.53,11.43-23.72,22.19-35.61,33.27L132.67,740c-23.72-29.66-49-58.25-70.78-89.26-29-41.28-49.68-86.83-58-137.24-1.16-7-2.59-14-3.89-21.06Zm212.81,98.71c43.13,0,79.15-33.63,79.63-79.5.46-43.53-36.78-80-79.91-79.53a79.52,79.52,0,0,0,.28,159Z"/><path class="cls-3" d="M0,492.39c1.3,7,2.73,14,3.89,21.06,8.32,50.41,29,96,58,137.24,21.81,31,47.06,59.6,70.77,89.25-8.61,3.29-17.41,6.16-25.78,10-17,7.72-33.06,16.77-41,35.15-7,16.54-2.33,33.6,12.84,46.73,19.38,16.77,43,23.91,67.29,29.33,12.18,2.71,24.52,4.67,36.79,7H0Z"/><path class="cls-4" d="M182.8,868.09c-12.27-2.3-24.61-4.26-36.79-7-24.28-5.42-47.91-12.56-67.29-29.33-15.17-13.13-19.85-30.19-12.84-46.73,8.93,13.5,21.38,23,35.81,29.57,31.09,14.07,64.12,20.17,98,21.13,15.41.43,30.9-.49,46.3-1.61a229.53,229.53,0,0,0,76.35-18.82c15.29-6.72,27.37-17.34,37.86-30,6.91,19.22.45,37-18.67,50.9-20.93,15.26-45.29,21.66-70.11,26.67-10.3,2.08-20.73,3.49-31.11,5.21Z"/><path class="cls-2" d="M632.78,370.67c-24.3-27.47-47.32-55.89-65.35-88-20-35.64-34.37-73.4-33.53-114.6C535.27,101.4,566,51.49,625.11,19.82c17.22-9.24,35.63-15.2,55.36-16.34,2.63.72,5.25,1.51,7.9,2.17C726.1,15.06,757.45,34.17,782,64.81c20.74,25.85,32.21,55.18,35.3,87.67,4.2,44.3-8.48,85.26-29.09,123.65-20,37.27-45.75,70.59-75.78,100.52-12,11.91-23.64,24.11-35.45,36.18Zm67-141.87c33.69.12,61.67-27.64,61.48-61-.2-33.55-28.17-61.39-61.52-61.2s-61.5,28.54-61,61.66A61.34,61.34,0,0,0,699.76,228.8Z"/><path class="cls-5" d="M189.5,793.78c11.89-11.08,24.08-21.84,35.61-33.27,43-42.69,81.35-89.19,111.15-142.16,19.82-35.25,33.8-72.89,39.14-113.11,7.1-53.48-3.82-103.51-33.83-148.47-32.2-48.23-77.68-77.69-134.08-90.59-3.77-.86-7.42-2.28-11.12-3.44,107.34-8.52,202.49,64.06,224.7,168.42,9.66,45.4,3.51,90-12.31,133.3C385.18,629,345.15,683,299.56,733.34c-2.24,2.48-4.39,5.06-6.59,7.6l-6.17,5.68Q254.88,776,223,805.4c-5.63,5.17-11.89,6.48-18.24,1.55C199.42,802.84,194.55,798.19,189.5,793.78Z"/><path class="cls-5" d="M677,412.83c11.81-12.07,23.49-24.27,35.45-36.18,30-29.93,55.77-63.25,75.78-100.52,20.61-38.39,33.29-79.35,29.09-123.65C814.24,120,802.77,90.66,782,64.81,757.45,34.17,726.1,15.06,688.37,5.65c-2.65-.66-5.27-1.45-7.9-2.17,51.27-7.1,95.73,8.36,132.92,43.14,39.55,37,56.82,83.33,52,137.59-4,45.21-22,85.2-47.38,121.86-15.48,22.4-33.52,43-50.42,64.45-15.56,14.9-30.68,30.31-46.81,44.56s-18.93,21.28-40.26,1.26C679.31,415.21,678.18,414,677,412.83Z"/><path class="cls-6" d="M189.5,793.78c5.05,4.41,9.92,9.06,15.21,13.17,6.35,4.93,12.61,3.62,18.24-1.55q32-29.35,63.85-58.78l6.17-5.68c16.26,7.33,33.22,13.47,48.47,22.49,7.84,4.64,12.63,14.42,18.79,21.88-10.49,12.68-22.57,23.3-37.86,30A229.53,229.53,0,0,1,246,834.15c-15.4,1.12-30.89,2-46.3,1.61-33.91-1-66.94-7.06-98-21.13-14.43-6.54-26.88-16.07-35.81-29.57,7.94-18.38,24-27.43,41-35.15,8.37-3.81,17.17-6.68,25.78-10Z"/><path class="cls-6" d="M677,412.83c1.17,1.17,2.3,2.38,3.51,3.51,21.33,20,24.13,13,40.26-1.26s31.25-29.66,46.81-44.56c8.15,3.65,17.08,6.2,24.25,11.25,8.25,5.82,14.94,13.85,22.31,20.91-14.91,19-35.79,27.34-58.39,32.2-25,5.39-50.11,8.08-75.93,5.36-35.12-3.7-69.21-8.78-94.14-37.51,8.11-15.42,22.69-22.31,37.74-28.56,3.08-1.27,6.23-2.34,9.35-3.5Z"/><path class="cls-4" d="M585.69,402.73c24.93,28.73,59,33.81,94.14,37.51,25.82,2.72,50.92,0,75.93-5.36,22.6-4.86,43.48-13.22,58.39-32.2,8.39,16,3.48,33.05-13.18,45.35-17.67,13-38.3,18.58-59.41,22.12a245.85,245.85,0,0,1-98.76-3.25c-15.93-3.82-31.23-9.26-44.48-19.31C582.13,435.32,577.41,418.48,585.69,402.73Z"/><path class="cls-7" d="M552.05,812c-3.6-.39-7.28-.44-10.78-1.25-6.27-1.44-9.64-5.89-9.53-12.13s3.42-11,9.81-11.82a96.16,96.16,0,0,1,20.06-.65c7.27.58,12,5.06,11.93,12.69s-5,11.57-12.22,12.52c-3,.39-6.15.06-9.23.06Z"/><path class="cls-8" d="M526.66,431c-1.95.11-3.91.32-5.87.29-8.19-.09-14.09-5.18-14.32-12.29-.22-6.8,4.85-12.17,12.69-13,5.56-.57,11.21-1.26,16.73-.82,8.12.64,12.86,5.94,12.46,13.05-.43,7.73-5.17,11.39-12.47,12.17-3,.33-6.14.37-9.22.55Z"/><path class="cls-9" d="M543.31,569.33c3,.26,7.48-.64,10.15,1.14,4,2.66,8.44,6.72,9.67,11,1.67,5.89-2.17,11.53-8.5,12.49a91.79,91.79,0,0,1-22.59.46c-6.69-.65-10.62-5.66-10.32-12.36.3-6.93,4.34-11.46,11.69-12.15C536.49,569.66,539.59,569.56,543.31,569.33Z"/><path class="cls-9" d="M609.66,569.33c3.5.27,7.19.29,10.78.88,6.51,1.07,10,5.61,10.21,11.72s-3,11.47-9.39,12.26a95.28,95.28,0,0,1-22.58.09c-6.75-.78-10.1-5.86-9.7-12.71.38-6.44,4-10.38,10.41-11.43C602.71,569.59,606.12,569.59,609.66,569.33Z"/><path class="cls-9" d="M744.46,595.61c-3.9-.39-7.9-.38-11.7-1.26-6.67-1.53-10.17-6.26-9.64-13,.49-6.2,4.19-10.63,10.7-11.21a136.68,136.68,0,0,1,18.55-.2c7.57.36,12,4.69,12.53,12.24.48,6.93-5,12.29-12.8,13-2.51.23-5.07,0-7.61,0Z"/><path class="cls-8" d="M866.21,712.19c-1.72,5.72-3.26,12.9-6.06,19.55-2.56,6.09-8,8.66-14.57,6.53-6.34-2-10-6.81-8.92-13.43a95.24,95.24,0,0,1,5.71-20.14c2.34-5.76,7.63-8.33,13.83-6.81C862.64,699.48,865.91,704.12,866.21,712.19Z"/><path class="cls-8" d="M487.05,439.21c.22,7.92-16.12,25.4-24,25.64s-15.54-9.36-11.48-16.26a71.54,71.54,0,0,1,17.33-19.93C475.85,423.3,486.8,430.36,487.05,439.21Z"/><path class="cls-10" d="M677,595.73c-4.17-.51-8.49-.49-12.45-1.67-6.15-1.82-9-6.63-8.45-12.94.56-5.9,3.9-10.18,10-10.84a110.21,110.21,0,0,1,18.52-.47c8.47.52,13,5.23,13,12.57,0,7.15-4.77,12-12.93,12.82-2.5.25-5.06,0-7.59,0Z"/><path class="cls-9" d="M621.34,811.24c-16.29.13-22.23-3.65-22.34-12.64s5.89-13.09,19.58-13.08a67.79,67.79,0,0,1,11.76.64c6.72,1.21,10.57,5.85,10.31,12.45-.28,6.87-4.19,11.54-11.63,12.16C625.66,811.05,622.28,811.19,621.34,811.24Z"/><path class="cls-9" d="M499.14,568.69c-1.1,11.17-10.8,16.63-18.95,11.82a88.18,88.18,0,0,1-16.37-13c-4.91-4.77-4.62-10.75-.4-16s10-6.66,15.72-3A104.24,104.24,0,0,1,495,561C497.38,563.28,498.32,567.1,499.14,568.69Z"/><path class="cls-9" d="M754.53,784.54a64.15,64.15,0,0,1,7.57-.36c7.5.51,12.82,5.34,12.85,12,0,7.17-3.84,11.78-10.89,12.9a104.56,104.56,0,0,1-17.66,1.33c-7.87-.11-13.29-5.51-13.39-12.46s5.17-12.11,13.09-12.79c2.79-.24,5.62,0,8.43,0Z"/><path class="cls-10" d="M806.66,791.4c-2-1.64-7-3.83-8.69-7.52-1.56-3.35-1.18-9.71,1.11-12.32a68.12,68.12,0,0,1,18.26-14.66c3-1.63,9.35-.41,12.19,1.93s4.52,7.75,4.39,11.74C833.7,777.05,815.57,791.42,806.66,791.4Z"/><path class="cls-10" d="M865.45,661.76c-3.85,3.75-7,9.22-11,10s-11.06-1.59-13.44-4.95c-4.08-5.76-6.18-13.21-8-20.24-1.58-6.15,1.52-12.09,7.54-13.23,4.41-.83,11.7.64,13.91,3.76C859.19,643.79,861.42,652.2,865.45,661.76Z"/><path class="cls-10" d="M815.34,619.3c-11.15-4.81-21-9-26.12-18.48-1.69-3.1-.31-10.2,2.31-12.71,3-2.82,9.65-4.52,13.36-3.11a49,49,0,0,1,18,12.12c2.71,2.91,3.6,9.54,2.32,13.53C824,614.23,818.76,616.48,815.34,619.3Z"/><path class="cls-11" d="M435.12,503.74C435,493,439.4,487.16,447.31,486.9s12.21,4.35,13.22,14.09c.5,4.75,1.32,9.51,1.29,14.26,0,7-3.65,11.74-10.81,12.9-6.84,1.11-12.5-3.08-14.19-10.25a75.07,75.07,0,0,1-1.34-8.32C435.21,507.35,435.19,505.09,435.12,503.74Z"/><path class="cls-10" d="M484.56,812.23c-3-.33-7-.37-10.76-1.3-6.3-1.55-9.56-6.23-9.14-12.46.44-6.52,4.12-11.16,11.12-11.66,5.89-.42,11.82-.38,17.73-.24,7.1.18,11.72,3.69,12.65,11s-3,12.19-10.6,13.76C492.29,812,488.86,811.9,484.56,812.23Z"/><path class="cls-11" d="M686.16,810.7c-2.25,0-4.51.1-6.76,0-8.08-.43-13.31-5.19-13.51-12.21-.19-6.74,5.11-12.42,12.88-13a102.18,102.18,0,0,1,16.87,0c7.84.71,12.63,6.31,12,13.54-.72,7.76-5.59,11.24-13,11.62-2.81.14-5.63,0-8.44,0Z"/><path class="cls-11" d="M418.47,786.78c2.82,0,5.65-.19,8.44,0,7.39.6,12.78,5.71,12.44,12.35-.35,7-4.33,11.74-11.35,12.6a96.86,96.86,0,0,1-17.7.26c-8-.49-12.86-5.78-12.72-12.93s5.31-11.88,13.3-12.32c2.52-.14,5.06,0,7.59,0Z"/><path class="cls-3" d="M212.81,553.87a79.52,79.52,0,0,1-.28-159c43.13-.44,80.37,36,79.91,79.53C292,520.24,255.94,553.85,212.81,553.87Z"/><path class="cls-3" d="M699.76,228.8a61.34,61.34,0,0,1-61.07-60.52c-.47-33.12,27.6-61.47,61-61.66s61.32,27.65,61.52,61.2C761.43,201.16,733.45,228.92,699.76,228.8Z"/></g></g></svg>