<svg xmlns="http://www.w3.org/2000/svg" viewBox="0 0 512 512"><defs><style>.cls-1{fill:#fadf65;}.cls-2{fill:#f7a53f;}.cls-3{fill:#fefefe;}.cls-4{fill:#3d9ba4;}.cls-5{fill:#fefdfd;}.cls-6{fill:#3d9ba5;}.cls-7{fill:#78c5ce;}.cls-8{fill:#77c5ce;}.cls-9{fill:#fe616d;}.cls-10{fill:#e43868;}.cls-11{fill:#475366;}.cls-12{fill:#465366;}.cls-13{fill:#485366;}.cls-14{fill:#e53869;}.cls-15{fill:#fade65;}.cls-16{fill:#455367;}.cls-17{fill:#475265;}.cls-18{fill:#449aa3;}.cls-19{fill:#fbdf65;}.cls-20{fill:#e43668;}.cls-21{fill:#fbfafa;}.cls-22{fill:#e5e1e2;}.cls-23{fill:#fbfbfb;}</style></defs><g id="Layer_2" data-name="Layer 2"><g id="Layer_1-2" data-name="Layer 1"><path class="cls-1" d="M512,253v23l-2.16,14.55c-4.77,32.24-14.74,62.7-30.77,91.15a258.13,258.13,0,0,1-44,57.27,252.12,252.12,0,0,1-52.94,39.83c-14.66-30.49-40.12-45.09-72.53-50.09a429.31,429.31,0,0,1-42.82-8.8c-6.29-1.64-11.9-5.88-17.82-8.94,1.63.25,3.26.46,4.88.73,6.71,1.12,13.39,2.48,20.13,3.29,4,.49,7.18-2,7.45-5.78.19-2.66-1.57-5.74-3.19-8.14-.82-1.2-3.25-1.41-5-1.84q-18.08-4.49-36.2-8.82a65,65,0,0,0-6.84-.93c-5.39-12.34-8-25.38-8.94-38.67-1.24-16.66.19-33,9.3-47.66,10.44-16.83,26.84-25.36,45.06-29.79,22.23-5.41,44.9-9,67.37-13.41.4,6.79.29,13.67,1.29,20.38q8.82,59.57,59.32,92.64c1.57,1,3.56,1.42,5.36,2.11l0,0,1.56,2.13L400,381.73c-5.63,2.44-7.83,6.32-6.09,10.77,1.83,4.71,6.14,6.06,12.17,3.71q7.67-3,15.26-6.16c6.13-2.55,7.18-4.44,6.44-11.12,2.1-1.34,4.17-2.7,6.28-4,32.69-20.18,53.78-48.73,60.84-86.64,2.22-11.93,1.64-24.37,2.34-36.57ZM318.07,417.2c14.39-2.41,28.79-4.7,43.14-7.31a7.53,7.53,0,0,0,6.28-8.79c-.71-4.29-4.4-7.1-9.16-6.42q-21.16,3-42.29,6.4a7.67,7.67,0,0,0-6.52,8.58C310.11,413.8,313.53,416.59,318.07,417.2Z"/><path class="cls-2" d="M0,277V235c1-6.43,2-12.86,3-19.28,2.89-17.82,7.16-35.26,14.16-51.95A16.41,16.41,0,0,1,19,166.13a114.48,114.48,0,0,0,28.89,36.92c7.13,6,15.37,10.72,23.12,16l0,0,2,1.27,2,1.57c-.13,2.33-.9,4.85-.27,7,1.64,5.55,3.82,10.95,5.92,16.36,2.34,6,6.29,8.23,11,6.35,4.36-1.76,5.71-6,3.65-11.87s-4.27-11.86-6.4-17.78l13.44-8.26,8.49,2.74a2,2,0,0,0,.24.68c-1,14.95-2.13,29.89-2.93,44.85-.24,4.4.43,8.86.68,13.29-5.73,0-8.42,3.39-9.49,8.56a81.08,81.08,0,0,1-32.78,9.19c-8.87.53-13.95,6.38-14.59,15.31-1.09,15.15,4.89,28,13.53,39.67,11.61,15.66,26.15,26.69,46.82,27.34,10.44.32,19.17,5.07,24.59,14,5,8.28,9.94,17,13,26.1,8.58,25.37,11,51.81,11.41,78.47a3.85,3.85,0,0,1-1-.13C118.39,476.39,83,450.3,55,414.59S9.43,338.79,2.74,293.92C1.9,288.27.92,282.64,0,277Z"/><path class="cls-3" d="M276,0H512V236c-.66-3.34-1.56-6.66-1.94-10a246.58,246.58,0,0,0-21.19-76c-20.2-44.72-51.08-80.36-91.76-107.55C379.06,30.38,359.86,20.52,339,14.06L307,5.1c-4.39-.74-8.78-1.5-13.18-2.22C287.86,1.9,281.93,1,276,0Z"/><path class="cls-3" d="M382.16,478.79A251.74,251.74,0,0,0,435.1,439a258.13,258.13,0,0,0,44-57.27c16-28.45,26-58.91,30.77-91.15L512,276V512H275a19.59,19.59,0,0,1,3.08-1c9.62-1.41,19.25-2.75,28.88-4.12A264.91,264.91,0,0,0,382.16,478.79Z"/><path class="cls-3" d="M0,277c.92,5.64,1.9,11.27,2.74,16.92C9.43,338.79,27,379,55,414.59s63.44,61.8,105.38,79.08a3.85,3.85,0,0,0,1,.13A237.05,237.05,0,0,0,216.18,509c6.28,1,12.55,2,18.82,3H0Z"/><path class="cls-4" d="M235,512c-6.27-1-12.54-2-18.82-3A237.05,237.05,0,0,1,161.3,493.8c-.4-26.66-2.83-53.1-11.41-78.47-3.08-9.14-8-17.82-13-26.1-5.42-8.9-14.15-13.65-24.59-14-20.67-.65-35.21-11.68-46.82-27.34-8.64-11.66-14.62-24.52-13.53-39.67.64-8.93,5.72-14.78,14.59-15.31a81.23,81.23,0,0,0,32.78-9.18q7.35,12.57,14.69,25.14c3,11,5.48,22.23,9.21,33,15.34,44.31,41.71,81.16,77.55,111.1a248.78,248.78,0,0,0,101.47,51.27c1.69.41,3.17,1.74,4.74,2.64-9.63,1.37-19.26,2.71-28.88,4.12a19.59,19.59,0,0,0-3.08,1Z"/><path class="cls-5" d="M17.19,163.77C10.19,180.46,5.92,197.9,3,215.72,2,222.14,1,228.57,0,235V0H235c-8.26,1.35-16.54,2.56-24.77,4.06-29.52,5.42-57.4,15.3-83.14,30.89A80.34,80.34,0,0,0,76.27,21.24c-4.45.29-8.82,1.74-13.22,2.66a5.66,5.66,0,0,0-2.12-.34C43.51,28,29.27,37.28,19.09,52.13,3.9,74.3,1.79,99.33,5.85,124.8,8,138.06,13.31,150.8,17.19,163.77Z"/><path class="cls-6" d="M127.09,35c25.74-15.59,53.62-25.47,83.14-30.89C218.46,2.56,226.74,1.35,235,0h41c5.93,1,11.86,1.9,17.78,2.88,4.4.72,8.79,1.48,13.18,2.22a52.58,52.58,0,0,1-5.73,2.84c-14.51,5.12-29.54,9.1-43.51,15.42-39.76,18-72.66,44.81-98.86,79.78a28.54,28.54,0,0,1-.65-3.86C157.34,73.23,148.32,51.14,127.09,35Z"/><path class="cls-7" d="M488.87,150a246.58,246.58,0,0,1,21.19,76c.38,3.37,1.28,6.69,1.94,10v17l-14.76-1.28c-1.68-13.82-4.72-27.2-12.26-39.19-8.53-13.59-20.73-22.76-35.13-29.3.44-1.07.81-2.18,1.32-3.21C459.1,164.2,469.86,151.92,488.87,150Z"/><path class="cls-8" d="M158.86,103.14c26.2-35,59.1-61.82,98.86-79.78,14-6.32,29-10.3,43.51-15.42A52.58,52.58,0,0,0,307,5.1l32.08,9C327.61,26.59,315.71,38.72,305,51.81a88,88,0,0,0-13,22.77c-4.32,10.71,0,19.56,10.44,24.62,3.73,1.81,7.66,3.21,11.44,4.93,10.22,4.64,11.46,10.38,3.49,18.13-6.8,6.6-14.16,12.61-21.12,19-7.14,6.6-13.36,13.95-16.61,23.34-5,14.33,1.2,25.69,15.87,29.25,10.41,2.52,20.42.71,30.31-2.79,11.6-4.1,20.52-12.07,29.64-19.86,5.3-4.53,11.37-7.16,18.68-6.59,11.08.87,17.4,8.05,22.86,16.54-.76.3-1.5.63-2.26.91-20.81,7.39-35.82,21-44.47,41.44-4.92,11.65-6,24-7.22,36.4-22.47,4.39-45.14,8-67.37,13.41-18.22,4.43-34.62,13-45.06,29.79-9.11,14.7-10.54,31-9.3,47.66,1,13.29,3.55,26.33,8.94,38.66-3.7,1.67-5.67,4.37-5.35,8.57s3.23,5.92,6.65,7.08c5.15,1.75,10.35,3.35,15.53,5l2,.88-.06,0c5.92,3.06,11.53,7.3,17.82,8.94a429.31,429.31,0,0,0,42.82,8.8c32.41,5,57.87,19.6,72.53,50.09A265.19,265.19,0,0,1,307,506.91c-1.57-.9-3-2.23-4.74-2.64A248.78,248.78,0,0,1,200.75,453c-35.84-29.94-62.21-66.79-77.55-111.1-3.73-10.77-6.17-22-9.21-33,3.9,5.16,7.62,10.47,11.77,15.41,2.47,2.95,6.4,4.1,9.3,1.34,2.06-1.95,3.07-5.49,3.52-8.48.24-1.55-1.64-3.5-2.73-5.15-5.86-8.87-11.7-17.76-17.69-26.54-2.32-3.38-5-6.48-7.56-9.71,6.21-7.71,13.11-15,18.42-23.25,4.83-7.55,5.94-16.34.33-24.43-4.38-6.31-11-9.37-18.31-11a2,2,0,0,1-.24-.68q1.08-5.56,2.14-11.11C143.58,178.11,158.64,144,158.86,103.14Zm35.56,283.55c2.13-2,5-3.72,6.55-6.27,2.21-3.65-.2-6.72-3.06-9q-16-12.71-32.06-25.23c-4.16-3.25-8.67-3.2-11.59,0-3.29,3.59-3.16,8,1.38,11.74,10.89,8.95,22.08,17.52,33.22,26.16C190.11,385.06,191.8,385.49,194.42,386.69Z"/><path class="cls-9" d="M449.85,183.23c14.4,6.54,26.6,15.71,35.13,29.3,7.54,12,10.58,25.37,12.26,39.19-.7,12.2-.12,24.64-2.34,36.57-7.06,37.91-28.15,66.46-60.84,86.64-2.11,1.3-4.18,2.66-6.27,4-4.62,1.94-9.23,3.5-13.83-.05l-1-.83,0,.05c-.37-.31-.75-.61-1.13-.91l0,.11-2.87-2.24,0,0c-.74-.88-1.41-1.83-2.22-2.62-7.95-7.74-16.93-14.65-23.7-23.3-25.57-32.7-36.24-69.73-28.94-111,4.24-24,16.83-42.27,39.37-52.88l11.6-5.44c3.73-.56,7.44-1.46,11.17-1.61C427.75,177.72,438.92,179.76,449.85,183.23ZM473,255.35c1.54-29.07-24.33-52.55-50.47-53.55-29.51-1.13-54.38,24.52-54.88,52s22.22,53.75,53.09,53.94C449,308,474.19,283.11,473,255.35Z"/><path class="cls-10" d="M405.08,179.79l-11.6,5.44c-22.54,10.61-35.13,28.88-39.37,52.88-7.3,41.32,3.37,78.35,28.94,111.05,6.77,8.65,15.75,15.56,23.7,23.3.81.79,1.48,1.74,2.22,2.62-1.8-.69-3.79-1.08-5.36-2.11q-50.49-33-59.32-92.64c-1-6.71-.89-13.59-1.29-20.38,1.25-12.36,2.3-24.75,7.22-36.4,8.65-20.46,23.66-34.05,44.47-41.44.76-.28,1.5-.61,2.26-.92Z"/><path class="cls-11" d="M318.07,417.2c-4.54-.61-8-3.4-8.55-7.54a7.67,7.67,0,0,1,6.52-8.58q21.12-3.37,42.29-6.4c4.76-.68,8.45,2.13,9.16,6.42a7.53,7.53,0,0,1-6.28,8.79C346.86,412.5,332.46,414.79,318.07,417.2Z"/><path class="cls-12" d="M247,410.13c-5.18-1.66-10.38-3.26-15.53-5-3.42-1.16-6.33-2.9-6.65-7.08s1.65-6.9,5.35-8.57a67.76,67.76,0,0,1,6.84.94q18.12,4.3,36.2,8.82c1.76.43,4.19.64,5,1.84,1.62,2.4,3.38,5.48,3.19,8.14C281.18,413,278,415.48,274,415c-6.74-.81-13.42-2.17-20.13-3.29-1.62-.27-3.25-.48-4.88-.73l.06,0Z"/><path class="cls-13" d="M414,378.88c4.6,3.55,9.21,2,13.83.05.73,6.68-.32,8.57-6.45,11.12q-7.59,3.17-15.26,6.16c-6,2.35-10.34,1-12.17-3.71-1.74-4.45.46-8.33,6.09-10.77l10.49-4.54,1.31.11,0-.12,1.13.92,0-.05Z"/><path class="cls-10" d="M411.8,377.3l-1.31-.11-1.56-2.13Z"/><path class="cls-9" d="M158.86,103.14c-.22,40.82-15.28,75-45.92,102.11l-10.63,8.38-13.44,8.26c-4.63,1.59-9.26,3.54-13.87,0l-2-1.57-2-1.27,0,0c-1.15-1.33-2.22-2.73-3.45-4-8.37-8.44-17.7-16.12-25-25.4C23,165,12.84,136.66,13.05,104.93c0-5.12.6-10.24.95-15.36,1.2-17.83,7.57-33.52,19.7-46.72,8.11-8.84,18.35-14.51,29.35-19,4.4-.92,8.77-2.37,13.22-2.66A80.34,80.34,0,0,1,127.09,35c21.23,16.19,30.25,38.28,31.12,64.33A28.54,28.54,0,0,0,158.86,103.14ZM81.32,150c27.26,2.43,53.16-25.75,53.15-51.9,0-28.36-25.26-53.27-52.53-53.44C53.63,44.51,29,69.59,28.6,97.25,28.17,125.1,54.84,152.23,81.32,150Z"/><path class="cls-14" d="M63.05,23.9c-11,4.44-21.24,10.11-29.35,19C21.57,56.05,15.2,71.74,14,89.57c-.35,5.12-.92,10.24-.95,15.36-.21,31.73,10,60,29.47,84.77,7.31,9.28,16.64,17,25,25.4,1.23,1.24,2.3,2.64,3.45,4-7.75-5.3-16-10-23.12-16A114.48,114.48,0,0,1,19,166.13a16.41,16.41,0,0,0-1.78-2.36c-3.88-13-9.23-25.71-11.34-39C1.79,99.33,3.9,74.3,19.09,52.13,29.27,37.28,43.51,28,60.93,23.56A5.66,5.66,0,0,1,63.05,23.9Z"/><path class="cls-15" d="M111,217.05c7.32,1.67,13.93,4.73,18.31,11,5.61,8.09,4.5,16.88-.33,24.43-5.31,8.29-12.21,15.54-18.42,23.25l-1.81-.58c-.25-4.43-.92-8.89-.68-13.29C108.91,246.94,110,232,111,217.05Z"/><path class="cls-16" d="M108.79,275.19l1.81.58c2.53,3.23,5.24,6.33,7.56,9.71,6,8.78,11.83,17.67,17.69,26.54,1.09,1.65,3,3.6,2.73,5.15-.45,3-1.46,6.53-3.52,8.48-2.9,2.76-6.83,1.61-9.3-1.34-4.15-4.94-7.87-10.25-11.77-15.41q-7.33-12.57-14.69-25.14C100.37,278.58,103.06,275.19,108.79,275.19Z"/><path class="cls-17" d="M75,221.86c4.61,3.57,9.24,1.62,13.87,0,2.13,5.92,4.32,11.83,6.4,17.78s.71,10.11-3.65,11.87c-4.68,1.88-8.63-.34-11-6.35-2.1-5.41-4.28-10.81-5.92-16.36C74.1,226.71,74.87,224.19,75,221.86Z"/><path class="cls-18" d="M102.31,213.63l10.63-8.38q-1.06,5.56-2.14,11.12Z"/><path class="cls-14" d="M70.94,219l2,1.27Z"/><path class="cls-19" d="M405.08,179.79l-8.13,1.4c-5.46-8.48-11.78-15.66-22.86-16.53-7.31-.57-13.38,2.06-18.68,6.59-9.12,7.79-18,15.76-29.64,19.86-9.89,3.5-19.9,5.31-30.31,2.79-14.67-3.56-20.83-14.92-15.87-29.25,3.25-9.39,9.47-16.74,16.61-23.34,7-6.44,14.32-12.45,21.12-19,8-7.75,6.73-13.49-3.49-18.13-3.78-1.72-7.71-3.12-11.44-4.93C291.93,94.14,287.63,85.29,292,74.58a88,88,0,0,1,13-22.77C315.71,38.72,327.61,26.59,339,14.06c20.82,6.46,40,16.32,58.07,28.38,40.68,27.19,71.56,62.83,91.76,107.55-19,1.93-29.77,14.21-37.7,30-.51,1-.88,2.14-1.32,3.21-10.93-3.47-22.1-5.51-33.6-5C412.52,178.33,408.81,179.23,405.08,179.79Z"/><path class="cls-16" d="M194.42,386.69c-2.62-1.2-4.31-1.63-5.56-2.6-11.14-8.64-22.33-17.21-33.22-26.16-4.54-3.72-4.67-8.15-1.38-11.74,2.92-3.2,7.43-3.25,11.59,0q16.07,12.57,32.06,25.23c2.86,2.28,5.27,5.35,3.06,9C199.42,383,196.55,384.72,194.42,386.69Z"/><path class="cls-1" d="M247,410.13l2,.88Z"/><path class="cls-20" d="M473,255.35c1.17,27.76-24.07,52.6-52.26,52.43-30.87-.19-53.59-26.52-53.09-53.94s25.37-53.17,54.88-52C448.69,202.8,474.56,226.28,473,255.35Zm-50,40.53a25.29,25.29,0,0,0,3.48,0c21-2.75,36.1-21.25,35.51-43.47-.53-20.18-17.37-37.43-38-39C400.58,211.13,379.64,230,379,254S398.93,297.46,423,295.88Z"/><path class="cls-10" d="M413,378.1l-1.13-.92Z"/><path class="cls-10" d="M414,378.88l-1-.83Z"/><path class="cls-20" d="M81.32,150C54.84,152.23,28.17,125.1,28.6,97.25c.42-27.66,25-52.74,53.34-52.57,27.27.17,52.51,25.08,52.53,53.44C134.48,124.27,108.58,152.45,81.32,150ZM85,56.23c-24.48-1.59-44.77,16.93-45,41s20.26,43.11,45,41.53c20.82-1.12,37.92-19.46,38-40.78C123.1,75.94,106.32,57.5,85,56.23Z"/><path class="cls-21" d="M423.94,213.45c20.67,1.56,37.51,18.81,38,39,.59,22.22-14.51,40.72-35.51,43.47a25.29,25.29,0,0,1-3.48,0c-10.51-3-19.77-7.54-26.59-16.79-11.06-15-9.67-38.81,3.11-52.3C406.35,219.56,414.7,215.88,423.94,213.45Z"/><path class="cls-22" d="M423.94,213.45c-9.24,2.43-17.59,6.11-24.43,13.34-12.78,13.49-14.17,37.29-3.11,52.3,6.82,9.25,16.08,13.81,26.59,16.79-24.06,1.58-44.55-18-43.95-41.91S400.58,211.13,423.94,213.45Z"/><path class="cls-23" d="M85,56.23C106.32,57.5,123.1,75.94,123,98c-.1,21.32-17.2,39.66-38,40.78a4.8,4.8,0,0,0-1.28-.71c-29.93-5.18-43.06-39.22-27.33-63C63.18,64.76,73,58.83,85,56.23Z"/><path class="cls-22" d="M85,56.23c-12,2.6-21.81,8.53-28.62,18.84-15.73,23.8-2.6,57.84,27.33,63a4.8,4.8,0,0,1,1.28.71c-24.71,1.58-45.17-17.31-45-41.53S60.51,54.64,85,56.23Z"/></g></g></svg>